<svg xmlns="http://www.w3.org/2000/svg" width="800" height="500" viewBox="0 0 800 500">
  <defs>
    <linearGradient id="bg" x1="0%" y1="0%" x2="100%" y2="100%">
      <stop offset="0%" style="stop-color:#eaf1f8"/>
      <stop offset="100%" style="stop-color:#cfdceb"/>
    </linearGradient>
    <linearGradient id="brand" x1="0%" y1="0%" x2="100%" y2="0%">
      <stop offset="0%" style="stop-color:#0a4f96"/>
      <stop offset="100%" style="stop-color:#0b66c3"/>
    </linearGradient>
  </defs>
  <!-- Background -->
  <rect width="800" height="500" fill="url(#bg)" rx="16"/>
  <line x1="400" y1="200" x2="400" y2="400" stroke="#cfd9e6" stroke-width="2"/><line x1="160" y1="150" x2="400" y2="400" stroke="#cfd9e6" stroke-width="2"/><line x1="640" y1="150" x2="400" y2="400" stroke="#cfd9e6" stroke-width="2"/><line x1="160" y1="350" x2="400" y2="400" stroke="#cfd9e6" stroke-width="2"/><line x1="640" y1="350" x2="400" y2="400" stroke="#cfd9e6" stroke-width="2"/><circle cx="400" cy="200" r="34" fill="#dbeafe" stroke="#0b66c3" stroke-width="2"/><text x="400" y="205" font-family="Arial,sans-serif" font-size="12" font-weight="bold" fill="#0b66c3" text-anchor="middle">Server</text><circle cx="160" cy="150" r="34" fill="#dcfce7" stroke="#16a34a" stroke-width="2"/><text x="160" y="155" font-family="Arial,sans-serif" font-size="12" font-weight="bold" fill="#16a34a" text-anchor="middle">PC-1</text><circle cx="640" cy="150" r="34" fill="#dcfce7" stroke="#16a34a" stroke-width="2"/><text x="640" y="155" font-family="Arial,sans-serif" font-size="12" font-weight="bold" fill="#16a34a" text-anchor="middle">PC-2</text><circle cx="160" cy="350" r="34" fill="#fef3c7" stroke="#d97706" stroke-width="2"/><text x="160" y="355" font-family="Arial,sans-serif" font-size="12" font-weight="bold" fill="#d97706" text-anchor="middle">PC-3</text><circle cx="640" cy="350" r="34" fill="#fef3c7" stroke="#d97706" stroke-width="2"/><text x="640" y="355" font-family="Arial,sans-serif" font-size="12" font-weight="bold" fill="#d97706" text-anchor="middle">PC-4</text><circle cx="400" cy="400" r="34" fill="#fee2e2" stroke="#dc2626" stroke-width="2"/><text x="400" y="405" font-family="Arial,sans-serif" font-size="12" font-weight="bold" fill="#dc2626" text-anchor="middle">Switch</text><text x="400" y="480" font-family="Arial,sans-serif" font-size="13" font-weight="normal" fill="#50607a" text-anchor="middle">Red en topología estrella — dispositivos conectados al switch central</text>
</svg>