<svg xmlns="http://www.w3.org/2000/svg" width="800" height="500" viewBox="0 0 800 500">
  <defs>
    <linearGradient id="bg" x1="0%" y1="0%" x2="100%" y2="100%">
      <stop offset="0%" style="stop-color:#eaf1f8"/>
      <stop offset="100%" style="stop-color:#cfdceb"/>
    </linearGradient>
    <linearGradient id="brand" x1="0%" y1="0%" x2="100%" y2="0%">
      <stop offset="0%" style="stop-color:#0a4f96"/>
      <stop offset="100%" style="stop-color:#0b66c3"/>
    </linearGradient>
  </defs>
  <rect width="800" height="500" fill="url(#bg)" rx="16"/>
  <text x="400" y="35" font-family="Arial,sans-serif" font-size="15" font-weight="bold" fill="#0f172a" text-anchor="middle">Problemas frecuentes y diagnóstico</text><rect x="80" y="70" width="140" height="80" rx="10" fill="#fee2e2" stroke="#dc2626" stroke-width="1.5"/><text x="150" y="96" font-family="Arial,sans-serif" font-size="12" font-weight="bold" fill="#dc2626" text-anchor="middle">No hay link</text><text x="150" y="116" font-family="Arial,sans-serif" font-size="10" font-weight="normal" fill="#50607a" text-anchor="middle">LED apagado</text><text x="150" y="130" font-family="Arial,sans-serif" font-size="10" font-weight="normal" fill="#50607a" text-anchor="middle">Cable dañado</text><rect x="80" y="180" width="140" height="80" rx="10" fill="#fef3c7" stroke="#d97706" stroke-width="1.5"/><text x="150" y="206" font-family="Arial,sans-serif" font-size="12" font-weight="bold" fill="#d97706" text-anchor="middle">IP inválida</text><text x="150" y="226" font-family="Arial,sans-serif" font-size="10" font-weight="normal" fill="#50607a" text-anchor="middle">169.254.x.x</text><text x="150" y="240" font-family="Arial,sans-serif" font-size="10" font-weight="normal" fill="#50607a" text-anchor="middle">DHCP falla</text><rect x="80" y="290" width="140" height="80" rx="10" fill="#dbeafe" stroke="#0b66c3" stroke-width="1.5"/><text x="150" y="316" font-family="Arial,sans-serif" font-size="12" font-weight="bold" fill="#0b66c3" text-anchor="middle">Sin ping</text><text x="150" y="336" font-family="Arial,sans-serif" font-size="10" font-weight="normal" fill="#50607a" text-anchor="middle">Gateway mal</text><text x="150" y="350" font-family="Arial,sans-serif" font-size="10" font-weight="normal" fill="#50607a" text-anchor="middle">Firewall</text><rect x="80" y="400" width="140" height="80" rx="10" fill="#dcfce7" stroke="#16a34a" stroke-width="1.5"/><text x="150" y="426" font-family="Arial,sans-serif" font-size="12" font-weight="bold" fill="#16a34a" text-anchor="middle">DNS falla</text><text x="150" y="446" font-family="Arial,sans-serif" font-size="10" font-weight="normal" fill="#50607a" text-anchor="middle">Ping a IP OK</text><text x="150" y="460" font-family="Arial,sans-serif" font-size="10" font-weight="normal" fill="#50607a" text-anchor="middle">Nombre falla</text><polygon points="235,110 255,103 255,117" fill="#50607a"/><rect x="258" y="92" width="230" height="36" rx="6" fill="#ffffff" stroke="#cfd9e6" stroke-width="1"/><text x="373" y="110" font-family="Arial,sans-serif" font-size="11" font-weight="normal" fill="#0f172a" text-anchor="middle">Verificar capa por capa (OSI)</text><polygon points="490,110 510,103 510,117" fill="#50607a"/><rect x="513" y="92" width="200" height="36" rx="6" fill="#dcfce7" stroke="#16a34a" stroke-width="1"/><text x="613" y="110" font-family="Arial,sans-serif" font-size="11" font-weight="normal" fill="#16a34a" text-anchor="middle">Solución aplicada ✓</text><polygon points="235,220 255,213 255,227" fill="#50607a"/><rect x="258" y="202" width="230" height="36" rx="6" fill="#ffffff" stroke="#cfd9e6" stroke-width="1"/><text x="373" y="220" font-family="Arial,sans-serif" font-size="11" font-weight="normal" fill="#0f172a" text-anchor="middle">Verificar capa por capa (OSI)</text><polygon points="490,220 510,213 510,227" fill="#50607a"/><rect x="513" y="202" width="200" height="36" rx="6" fill="#dcfce7" stroke="#16a34a" stroke-width="1"/><text x="613" y="220" font-family="Arial,sans-serif" font-size="11" font-weight="normal" fill="#16a34a" text-anchor="middle">Solución aplicada ✓</text><polygon points="235,330 255,323 255,337" fill="#50607a"/><rect x="258" y="312" width="230" height="36" rx="6" fill="#ffffff" stroke="#cfd9e6" stroke-width="1"/><text x="373" y="330" font-family="Arial,sans-serif" font-size="11" font-weight="normal" fill="#0f172a" text-anchor="middle">Verificar capa por capa (OSI)</text><polygon points="490,330 510,323 510,337" fill="#50607a"/><rect x="513" y="312" width="200" height="36" rx="6" fill="#dcfce7" stroke="#16a34a" stroke-width="1"/><text x="613" y="330" font-family="Arial,sans-serif" font-size="11" font-weight="normal" fill="#16a34a" text-anchor="middle">Solución aplicada ✓</text><polygon points="235,440 255,433 255,447" fill="#50607a"/><rect x="258" y="422" width="230" height="36" rx="6" fill="#ffffff" stroke="#cfd9e6" stroke-width="1"/><text x="373" y="440" font-family="Arial,sans-serif" font-size="11" font-weight="normal" fill="#0f172a" text-anchor="middle">Verificar capa por capa (OSI)</text><polygon points="490,440 510,433 510,447" fill="#50607a"/><rect x="513" y="422" width="200" height="36" rx="6" fill="#dcfce7" stroke="#16a34a" stroke-width="1"/><text x="613" y="440" font-family="Arial,sans-serif" font-size="11" font-weight="normal" fill="#16a34a" text-anchor="middle">Solución aplicada ✓</text><text x="400" y="470" font-family="Arial,sans-serif" font-size="12" font-weight="normal" fill="#50607a" text-anchor="middle">Diagnosticá siempre de Capa 1 hacia arriba · Cable → IP → Ping → Servicio</text>
</svg>