<svg xmlns="http://www.w3.org/2000/svg" width="800" height="500" viewBox="0 0 800 500"><defs><linearGradient id="bg" x1="0%" y1="0%" x2="100%" y2="100%"><stop offset="0%" stop-color="#eaf1f8"/><stop offset="100%" stop-color="#cfdceb"/></linearGradient></defs><rect width="800" height="500" fill="url(#bg)" rx="16"/><rect x="50" y="45" width="210" height="125" rx="12" fill="#dcfce7" stroke="#16a34a" stroke-width="1.5"/><text x="155" y="70" font-family="Arial,sans-serif" font-size="14" font-weight="bold" fill="#16a34a" text-anchor="middle">Bloque A</text><text x="65" y="93" font-family="Arial,sans-serif" font-size="12" font-weight="normal" fill="#50607a" text-anchor="start">Teoria - 80 min</text><text x="65" y="111" font-family="Arial,sans-serif" font-size="12" font-weight="normal" fill="#50607a" text-anchor="start">Componentes laptop</text><text x="65" y="129" font-family="Arial,sans-serif" font-size="12" font-weight="normal" fill="#50607a" text-anchor="start">Instalacion HW</text><text x="65" y="147" font-family="Arial,sans-serif" font-size="12" font-weight="normal" fill="#50607a" text-anchor="start">Disp. moviles + MDM</text><rect x="295" y="45" width="210" height="125" rx="12" fill="#fef3c7" stroke="#d97706" stroke-width="1.5"/><text x="400" y="70" font-family="Arial,sans-serif" font-size="14" font-weight="bold" fill="#d97706" text-anchor="middle">Bloque B</text><text x="310" y="93" font-family="Arial,sans-serif" font-size="12" font-weight="normal" fill="#50607a" text-anchor="start">Lab - 80 min</text><text x="310" y="111" font-family="Arial,sans-serif" font-size="12" font-weight="normal" fill="#50607a" text-anchor="start">Packet Tracer</text><text x="310" y="129" font-family="Arial,sans-serif" font-size="12" font-weight="normal" fill="#50607a" text-anchor="start">Red con moviles + AP</text><rect x="530" y="45" width="220" height="125" rx="12" fill="#dbeafe" stroke="#0b66c3" stroke-width="1.5"/><text x="640" y="70" font-family="Arial,sans-serif" font-size="14" font-weight="bold" fill="#0b66c3" text-anchor="middle">Bloque C</text><text x="545" y="93" font-family="Arial,sans-serif" font-size="12" font-weight="normal" fill="#50607a" text-anchor="start">Retro - 40 min</text><text x="545" y="111" font-family="Arial,sans-serif" font-size="12" font-weight="normal" fill="#50607a" text-anchor="start">Avance proyecto</text><polygon points="268,107 288,97 288,117" fill="#d97706"/><polygon points="503,107 523,97 523,117" fill="#0b66c3"/><rect x="50" y="218" width="700" height="22" rx="4" fill="#dbeafe" stroke="#cfd9e6" stroke-width="1"/><rect x="50" y="218" width="340" height="22" rx="4" fill="#16a34a" opacity="0.5"/><rect x="390" y="218" width="213" height="22" rx="4" fill="#d97706" opacity="0.5"/><rect x="603" y="218" width="147" height="22" rx="4" fill="#0b66c3" opacity="0.5"/><text x="220" y="213" font-family="Arial,sans-serif" font-size="11" font-weight="bold" fill="#16a34a" text-anchor="middle">80 min</text><text x="496" y="213" font-family="Arial,sans-serif" font-size="11" font-weight="bold" fill="#d97706" text-anchor="middle">80 min</text><text x="676" y="213" font-family="Arial,sans-serif" font-size="11" font-weight="bold" fill="#0b66c3" text-anchor="middle">40 min</text><circle cx="400" cy="340" r="68" fill="#dbeafe" stroke="#0b66c3" stroke-width="2"/><text x="400" y="332" font-family="Arial,sans-serif" font-size="34" font-weight="normal" fill="#0b66c3" text-anchor="middle">T</text><text x="400" y="370" font-family="Arial,sans-serif" font-size="14" font-weight="bold" fill="#0b66c3" text-anchor="middle">200 minutos</text><text x="400" y="455" font-family="Arial,sans-serif" font-size="13" font-weight="normal" fill="#50607a" text-anchor="middle">Semana 3 - TI-312 Soporte Tecnico II</text></svg>