<svg xmlns="http://www.w3.org/2000/svg" width="800" height="500" viewBox="0 0 800 500"><defs><linearGradient id="bg" x1="0%" y1="0%" x2="100%" y2="100%"><stop offset="0%" stop-color="#eaf1f8"/><stop offset="100%" stop-color="#cfdceb"/></linearGradient></defs><rect width="800" height="500" fill="url(#bg)" rx="16"/><circle cx="400" cy="210" r="130" fill="#dbeafe" stroke="#0b66c3" stroke-width="2"/><circle cx="400" cy="210" r="100" fill="#0a4f96" stroke="#0b66c3" stroke-width="0"/><text x="400" y="200" font-family="Arial,sans-serif" font-size="26" font-weight="bold" fill="#ffffff" text-anchor="middle">TI-312</text><text x="400" y="230" font-family="Arial,sans-serif" font-size="16" font-weight="normal" fill="#ffffff" text-anchor="middle">Semana 3</text><circle cx="240" cy="100" r="28" fill="#ede9fe" stroke="#7c3aed" stroke-width="2"/><text x="240" y="106" font-family="Arial,sans-serif" font-size="11" font-weight="bold" fill="#7c3aed" text-anchor="middle">Laptop</text><circle cx="560" cy="100" r="28" fill="#dcfce7" stroke="#16a34a" stroke-width="2"/><text x="560" y="106" font-family="Arial,sans-serif" font-size="11" font-weight="bold" fill="#16a34a" text-anchor="middle">Movil</text><circle cx="190" cy="330" r="28" fill="#fef3c7" stroke="#d97706" stroke-width="2"/><text x="190" y="336" font-family="Arial,sans-serif" font-size="11" font-weight="bold" fill="#d97706" text-anchor="middle">RAM</text><circle cx="610" cy="330" r="28" fill="#fee2e2" stroke="#dc2626" stroke-width="2"/><text x="610" y="336" font-family="Arial,sans-serif" font-size="11" font-weight="bold" fill="#dc2626" text-anchor="middle">SSD</text><circle cx="400" cy="390" r="28" fill="#dcfce7" stroke="#16a34a" stroke-width="2"/><text x="400" y="396" font-family="Arial,sans-serif" font-size="11" font-weight="bold" fill="#16a34a" text-anchor="middle">PT</text><line x1="264" y1="118" x2="370" y2="168" stroke="#0b66c380" stroke-width="1.5"/><line x1="536" y1="118" x2="430" y2="168" stroke="#0b66c380" stroke-width="1.5"/><line x1="216" y1="308" x2="310" y2="272" stroke="#d9770680" stroke-width="1.5"/><line x1="584" y1="308" x2="490" y2="272" stroke="#dc262680" stroke-width="1.5"/><line x1="400" y1="362" x2="400" y2="302" stroke="#16a34a80" stroke-width="1.5"/><text x="400" y="455" font-family="Arial,sans-serif" font-size="14" font-weight="normal" fill="#50607a" text-anchor="middle">Dispositivos Moviles y Portatiles</text><text x="400" y="476" font-family="Arial,sans-serif" font-size="12" font-weight="normal" fill="#50607a" text-anchor="middle">Universidad CENFOTEC - Escuela de TI</text></svg>