<svg xmlns="http://www.w3.org/2000/svg" width="800" height="470" viewBox="0 0 800 470"><defs><linearGradient id="bg" x1="0%" y1="0%" x2="100%" y2="100%"><stop offset="0%" stop-color="#eaf1f8"/><stop offset="100%" stop-color="#cfdceb"/></linearGradient></defs><rect width="800" height="470" fill="url(#bg)" rx="16"/><text x="400" y="30" font-family="Arial,sans-serif" font-size="15" font-weight="bold" fill="#0f172a" text-anchor="middle">Diagnostico integrado — resumen del curso</text><rect x="40" y="65" width="720" height="62" rx="8" fill="#dbeafe" stroke="#0b66c3" stroke-width="1.5"/><rect x="40" y="65" width="90" height="62" rx="8" fill="#0b66c3" stroke="#0b66c3" stroke-width="0"/><text x="85" y="91" font-family="Arial,sans-serif" font-size="10" font-weight="bold" fill="#ffffff" text-anchor="middle">CAPA 1</text><text x="85" y="105" font-family="Arial,sans-serif" font-size="9" font-weight="normal" fill="#ffffff" text-anchor="middle">Fisica</text><text x="140" y="87" font-family="Arial,sans-serif" font-size="12" font-weight="bold" fill="#0f172a" text-anchor="start">Cable, LED, senales</text><text x="140" y="105" font-family="Arial,sans-serif" font-size="11" font-weight="normal" fill="#50607a" text-anchor="start">Fix: Cambiar cable · verificar puerto switch</text><polygon points="520,96 540,88 540,104" fill="#0b66c3"/><rect x="545" y="81" width="210" height="30" rx="6" fill="#ffffff" stroke="#0b66c3" stroke-width="0.8"/><text x="650" y="100" font-family="Arial,sans-serif" font-size="9" font-weight="normal" fill="#0b66c3" text-anchor="middle">Cambiar cable · verificar puerto switch</text><rect x="40" y="137" width="720" height="62" rx="8" fill="#dcfce7" stroke="#16a34a" stroke-width="1.5"/><rect x="40" y="137" width="90" height="62" rx="8" fill="#16a34a" stroke="#16a34a" stroke-width="0"/><text x="85" y="163" font-family="Arial,sans-serif" font-size="10" font-weight="bold" fill="#ffffff" text-anchor="middle">CAPA 2</text><text x="85" y="177" font-family="Arial,sans-serif" font-size="9" font-weight="normal" fill="#ffffff" text-anchor="middle">Enlace</text><text x="140" y="159" font-family="Arial,sans-serif" font-size="12" font-weight="bold" fill="#0f172a" text-anchor="start">MAC, switches, tramas</text><text x="140" y="177" font-family="Arial,sans-serif" font-size="11" font-weight="normal" fill="#50607a" text-anchor="start">Fix: show mac-address-table · verificar NIC</text><polygon points="520,168 540,160 540,176" fill="#16a34a"/><rect x="545" y="153" width="210" height="30" rx="6" fill="#ffffff" stroke="#16a34a" stroke-width="0.8"/><text x="650" y="172" font-family="Arial,sans-serif" font-size="9" font-weight="normal" fill="#16a34a" text-anchor="middle">show mac-address-table · verificar NIC</text><rect x="40" y="209" width="720" height="62" rx="8" fill="#fef3c7" stroke="#d97706" stroke-width="1.5"/><rect x="40" y="209" width="90" height="62" rx="8" fill="#d97706" stroke="#d97706" stroke-width="0"/><text x="85" y="235" font-family="Arial,sans-serif" font-size="10" font-weight="bold" fill="#ffffff" text-anchor="middle">CAPA 3</text><text x="85" y="249" font-family="Arial,sans-serif" font-size="9" font-weight="normal" fill="#ffffff" text-anchor="middle">Red</text><text x="140" y="231" font-family="Arial,sans-serif" font-size="12" font-weight="bold" fill="#0f172a" text-anchor="start">IP, router, gateway</text><text x="140" y="249" font-family="Arial,sans-serif" font-size="11" font-weight="normal" fill="#50607a" text-anchor="start">Fix: ipconfig · ping GW · verificar mascara</text><polygon points="520,240 540,232 540,248" fill="#d97706"/><rect x="545" y="225" width="210" height="30" rx="6" fill="#ffffff" stroke="#d97706" stroke-width="0.8"/><text x="650" y="244" font-family="Arial,sans-serif" font-size="9" font-weight="normal" fill="#d97706" text-anchor="middle">ipconfig · ping GW · verificar mascara</text><rect x="40" y="281" width="720" height="62" rx="8" fill="#ede9fe" stroke="#7c3aed" stroke-width="1.5"/><rect x="40" y="281" width="90" height="62" rx="8" fill="#7c3aed" stroke="#7c3aed" stroke-width="0"/><text x="85" y="307" font-family="Arial,sans-serif" font-size="10" font-weight="bold" fill="#ffffff" text-anchor="middle">CAPA 4</text><text x="85" y="321" font-family="Arial,sans-serif" font-size="9" font-weight="normal" fill="#ffffff" text-anchor="middle">Transporte</text><text x="140" y="303" font-family="Arial,sans-serif" font-size="12" font-weight="bold" fill="#0f172a" text-anchor="start">TCP/UDP, puertos</text><text x="140" y="321" font-family="Arial,sans-serif" font-size="11" font-weight="normal" fill="#50607a" text-anchor="start">Fix: telnet IP puerto · netstat -an</text><polygon points="520,312 540,304 540,320" fill="#7c3aed"/><rect x="545" y="297" width="210" height="30" rx="6" fill="#ffffff" stroke="#7c3aed" stroke-width="0.8"/><text x="650" y="316" font-family="Arial,sans-serif" font-size="9" font-weight="normal" fill="#7c3aed" text-anchor="middle">telnet IP puerto · netstat -an</text><rect x="40" y="353" width="720" height="62" rx="8" fill="#fee2e2" stroke="#dc2626" stroke-width="1.5"/><rect x="40" y="353" width="90" height="62" rx="8" fill="#dc2626" stroke="#dc2626" stroke-width="0"/><text x="85" y="379" font-family="Arial,sans-serif" font-size="10" font-weight="bold" fill="#ffffff" text-anchor="middle">CAPA 7</text><text x="85" y="393" font-family="Arial,sans-serif" font-size="9" font-weight="normal" fill="#ffffff" text-anchor="middle">Aplicacion</text><text x="140" y="375" font-family="Arial,sans-serif" font-size="12" font-weight="bold" fill="#0f172a" text-anchor="start">HTTP, DNS, correo</text><text x="140" y="393" font-family="Arial,sans-serif" font-size="11" font-weight="normal" fill="#50607a" text-anchor="start">Fix: ping nombre · nslookup · telnet 80</text><polygon points="520,384 540,376 540,392" fill="#dc2626"/><rect x="545" y="369" width="210" height="30" rx="6" fill="#ffffff" stroke="#dc2626" stroke-width="0.8"/><text x="650" y="388" font-family="Arial,sans-serif" font-size="9" font-weight="normal" fill="#dc2626" text-anchor="middle">ping nombre · nslookup · telnet 80</text><text x="400" y="443" font-family="Arial,sans-serif" font-size="12" font-weight="bold" fill="#0b66c3" text-anchor="middle">Regla: siempre de Capa 1 hacia arriba — Cable LEDs IP Ping Servicio</text></svg>