<svg xmlns="http://www.w3.org/2000/svg" width="800" height="500" viewBox="0 0 800 500">
  <defs>
    <linearGradient id="bg" x1="0%" y1="0%" x2="100%" y2="100%">
      <stop offset="0%" style="stop-color:#eaf1f8"/>
      <stop offset="100%" style="stop-color:#cfdceb"/>
    </linearGradient>
    <linearGradient id="brand" x1="0%" y1="0%" x2="100%" y2="0%">
      <stop offset="0%" style="stop-color:#0a4f96"/>
      <stop offset="100%" style="stop-color:#0b66c3"/>
    </linearGradient>
  </defs>
  <!-- Background -->
  <rect width="800" height="500" fill="url(#bg)" rx="16"/>
  <circle cx="170" cy="180" r="18" fill="#dbeafe" stroke="#0b66c3" stroke-width="2"/><text x="170" y="185" font-family="Arial,sans-serif" font-size="10" font-weight="bold" fill="#0b66c3" text-anchor="middle">SW</text><line x1="170" y1="180" x2="170" y2="120" stroke="#0b66c360" stroke-width="1.5"/><circle cx="170" cy="120" r="12" fill="#dcfce7" stroke="#16a34a" stroke-width="1.5"/><text x="170" y="124" font-family="Arial,sans-serif" font-size="8" font-weight="normal" fill="#16a34a" text-anchor="middle">PC1</text><line x1="170" y1="180" x2="221" y2="150" stroke="#0b66c360" stroke-width="1.5"/><circle cx="221" cy="150" r="12" fill="#dcfce7" stroke="#16a34a" stroke-width="1.5"/><text x="221" y="154" font-family="Arial,sans-serif" font-size="8" font-weight="normal" fill="#16a34a" text-anchor="middle">PC2</text><line x1="170" y1="180" x2="221" y2="209" stroke="#0b66c360" stroke-width="1.5"/><circle cx="221" cy="209" r="12" fill="#dcfce7" stroke="#16a34a" stroke-width="1.5"/><text x="221" y="213" font-family="Arial,sans-serif" font-size="8" font-weight="normal" fill="#16a34a" text-anchor="middle">PC3</text><line x1="170" y1="180" x2="170" y2="240" stroke="#0b66c360" stroke-width="1.5"/><circle cx="170" cy="240" r="12" fill="#dcfce7" stroke="#16a34a" stroke-width="1.5"/><text x="170" y="244" font-family="Arial,sans-serif" font-size="8" font-weight="normal" fill="#16a34a" text-anchor="middle">PC4</text><line x1="170" y1="180" x2="119" y2="150" stroke="#0b66c360" stroke-width="1.5"/><circle cx="119" cy="150" r="12" fill="#dcfce7" stroke="#16a34a" stroke-width="1.5"/><text x="119" y="154" font-family="Arial,sans-serif" font-size="8" font-weight="normal" fill="#16a34a" text-anchor="middle">PC5</text><text x="170" y="260" font-family="Arial,sans-serif" font-size="12" font-weight="bold" fill="#0b66c3" text-anchor="middle">Estrella</text><line x1="350" y1="180" x2="650" y2="180" stroke="#d97706" stroke-width="2.5"/><line x1="380" y1="180" x2="380" y2="230" stroke="#d9770680" stroke-width="1.5"/><circle cx="380" cy="245" r="14" fill="#fef3c7" stroke="#d97706" stroke-width="1.5"/><text x="380" y="250" font-family="Arial,sans-serif" font-size="9" font-weight="bold" fill="#d97706" text-anchor="middle">A</text><line x1="460" y1="180" x2="460" y2="230" stroke="#d9770680" stroke-width="1.5"/><circle cx="460" cy="245" r="14" fill="#fef3c7" stroke="#d97706" stroke-width="1.5"/><text x="460" y="250" font-family="Arial,sans-serif" font-size="9" font-weight="bold" fill="#d97706" text-anchor="middle">B</text><line x1="540" y1="180" x2="540" y2="230" stroke="#d9770680" stroke-width="1.5"/><circle cx="540" cy="245" r="14" fill="#fef3c7" stroke="#d97706" stroke-width="1.5"/><text x="540" y="250" font-family="Arial,sans-serif" font-size="9" font-weight="bold" fill="#d97706" text-anchor="middle">C</text><line x1="620" y1="180" x2="620" y2="230" stroke="#d9770680" stroke-width="1.5"/><circle cx="620" cy="245" r="14" fill="#fef3c7" stroke="#d97706" stroke-width="1.5"/><text x="620" y="250" font-family="Arial,sans-serif" font-size="9" font-weight="bold" fill="#d97706" text-anchor="middle">D</text><text x="500" y="275" font-family="Arial,sans-serif" font-size="12" font-weight="bold" fill="#d97706" text-anchor="middle">Bus</text><line x1="200" y1="325" x2="261" y2="370" stroke="#16a34a" stroke-width="1.5"/><circle cx="200" cy="325" r="14" fill="#dcfce7" stroke="#16a34a" stroke-width="1.5"/><text x="200" y="329" font-family="Arial,sans-serif" font-size="8" font-weight="normal" fill="#16a34a" text-anchor="middle">N1</text><line x1="261" y1="370" x2="238" y2="442" stroke="#16a34a" stroke-width="1.5"/><circle cx="261" cy="370" r="14" fill="#dcfce7" stroke="#16a34a" stroke-width="1.5"/><text x="261" y="374" font-family="Arial,sans-serif" font-size="8" font-weight="normal" fill="#16a34a" text-anchor="middle">N2</text><line x1="238" y1="442" x2="162" y2="442" stroke="#16a34a" stroke-width="1.5"/><circle cx="238" cy="442" r="14" fill="#dcfce7" stroke="#16a34a" stroke-width="1.5"/><text x="238" y="446" font-family="Arial,sans-serif" font-size="8" font-weight="normal" fill="#16a34a" text-anchor="middle">N3</text><line x1="162" y1="442" x2="139" y2="370" stroke="#16a34a" stroke-width="1.5"/><circle cx="162" cy="442" r="14" fill="#dcfce7" stroke="#16a34a" stroke-width="1.5"/><text x="162" y="446" font-family="Arial,sans-serif" font-size="8" font-weight="normal" fill="#16a34a" text-anchor="middle">N4</text><line x1="139" y1="370" x2="200" y2="325" stroke="#16a34a" stroke-width="1.5"/><circle cx="139" cy="370" r="14" fill="#dcfce7" stroke="#16a34a" stroke-width="1.5"/><text x="139" y="374" font-family="Arial,sans-serif" font-size="8" font-weight="normal" fill="#16a34a" text-anchor="middle">N5</text><text x="200" y="470" font-family="Arial,sans-serif" font-size="12" font-weight="bold" fill="#16a34a" text-anchor="middle">Anillo</text><line x1="500" y1="320" x2="580" y2="320" stroke="#dc262650" stroke-width="1"/><line x1="500" y1="320" x2="620" y2="390" stroke="#dc262650" stroke-width="1"/><line x1="500" y1="320" x2="540" y2="430" stroke="#dc262650" stroke-width="1"/><line x1="500" y1="320" x2="460" y2="390" stroke="#dc262650" stroke-width="1"/><line x1="580" y1="320" x2="620" y2="390" stroke="#dc262650" stroke-width="1"/><line x1="580" y1="320" x2="540" y2="430" stroke="#dc262650" stroke-width="1"/><line x1="580" y1="320" x2="460" y2="390" stroke="#dc262650" stroke-width="1"/><line x1="620" y1="390" x2="540" y2="430" stroke="#dc262650" stroke-width="1"/><line x1="620" y1="390" x2="460" y2="390" stroke="#dc262650" stroke-width="1"/><line x1="540" y1="430" x2="460" y2="390" stroke="#dc262650" stroke-width="1"/><circle cx="500" cy="320" r="14" fill="#fee2e2" stroke="#dc2626" stroke-width="1.5"/><circle cx="580" cy="320" r="14" fill="#fee2e2" stroke="#dc2626" stroke-width="1.5"/><circle cx="620" cy="390" r="14" fill="#fee2e2" stroke="#dc2626" stroke-width="1.5"/><circle cx="540" cy="430" r="14" fill="#fee2e2" stroke="#dc2626" stroke-width="1.5"/><circle cx="460" cy="390" r="14" fill="#fee2e2" stroke="#dc2626" stroke-width="1.5"/><text x="540" y="470" font-family="Arial,sans-serif" font-size="12" font-weight="bold" fill="#dc2626" text-anchor="middle">Malla</text><text x="400" y="490" font-family="Arial,sans-serif" font-size="12" font-weight="normal" fill="#50607a" text-anchor="middle">Elige la topología según necesidades de redundancia y costo</text>
</svg>