<svg xmlns="http://www.w3.org/2000/svg" width="800" height="500" viewBox="0 0 800 500">
  <defs>
    <linearGradient id="bg" x1="0%" y1="0%" x2="100%" y2="100%">
      <stop offset="0%" style="stop-color:#eaf1f8"/>
      <stop offset="100%" style="stop-color:#cfdceb"/>
    </linearGradient>
    <linearGradient id="brand" x1="0%" y1="0%" x2="100%" y2="0%">
      <stop offset="0%" style="stop-color:#0a4f96"/>
      <stop offset="100%" style="stop-color:#0b66c3"/>
    </linearGradient>
  </defs>
  <!-- Background -->
  <rect width="800" height="500" fill="url(#bg)" rx="16"/>
  <rect x="50" y="60" width="340" height="58" rx="10" fill="#f0f5fb" stroke="#50607a" stroke-width="1.5"/><text x="66" y="84" font-family="Arial,sans-serif" font-size="13" font-weight="bold" fill="#50607a" text-anchor="start">802.11b</text><text x="66" y="104" font-family="Arial,sans-serif" font-size="11" font-weight="normal" fill="#50607a" text-anchor="start">Wi-Fi 1</text><rect x="410" y="60" width="160" height="58" rx="10" fill="#f0f5fb" stroke="#50607a" stroke-width="1.5"/><text x="490" y="84" font-family="Arial,sans-serif" font-size="14" font-weight="bold" fill="#50607a" text-anchor="middle">11 Mbps</text><rect x="590" y="60" width="160" height="58" rx="10" fill="#f0f5fb" stroke="#cfd9e6" stroke-width="1"/><text x="670" y="84" font-family="Arial,sans-serif" font-size="13" font-weight="normal" fill="#50607a" text-anchor="middle">2.4 GHz</text><rect x="50" y="128" width="340" height="58" rx="10" fill="#f0f5fb" stroke="#50607a" stroke-width="1.5"/><text x="66" y="152" font-family="Arial,sans-serif" font-size="13" font-weight="bold" fill="#50607a" text-anchor="start">802.11g</text><text x="66" y="172" font-family="Arial,sans-serif" font-size="11" font-weight="normal" fill="#50607a" text-anchor="start">Wi-Fi 3</text><rect x="410" y="128" width="160" height="58" rx="10" fill="#f0f5fb" stroke="#50607a" stroke-width="1.5"/><text x="490" y="152" font-family="Arial,sans-serif" font-size="14" font-weight="bold" fill="#50607a" text-anchor="middle">54 Mbps</text><rect x="590" y="128" width="160" height="58" rx="10" fill="#f0f5fb" stroke="#cfd9e6" stroke-width="1"/><text x="670" y="152" font-family="Arial,sans-serif" font-size="13" font-weight="normal" fill="#50607a" text-anchor="middle">2.4 GHz</text><rect x="50" y="196" width="340" height="58" rx="10" fill="#dbeafe" stroke="#0b66c3" stroke-width="1.5"/><text x="66" y="220" font-family="Arial,sans-serif" font-size="13" font-weight="bold" fill="#0b66c3" text-anchor="start">802.11n</text><text x="66" y="240" font-family="Arial,sans-serif" font-size="11" font-weight="normal" fill="#50607a" text-anchor="start">Wi-Fi 4</text><rect x="410" y="196" width="160" height="58" rx="10" fill="#dbeafe" stroke="#0b66c3" stroke-width="1.5"/><text x="490" y="220" font-family="Arial,sans-serif" font-size="14" font-weight="bold" fill="#0b66c3" text-anchor="middle">600 Mbps</text><rect x="590" y="196" width="160" height="58" rx="10" fill="#dbeafe" stroke="#cfd9e6" stroke-width="1"/><text x="670" y="220" font-family="Arial,sans-serif" font-size="13" font-weight="normal" fill="#50607a" text-anchor="middle">Dual</text><rect x="50" y="264" width="340" height="58" rx="10" fill="#dcfce7" stroke="#16a34a" stroke-width="1.5"/><text x="66" y="288" font-family="Arial,sans-serif" font-size="13" font-weight="bold" fill="#16a34a" text-anchor="start">802.11ac</text><text x="66" y="308" font-family="Arial,sans-serif" font-size="11" font-weight="normal" fill="#50607a" text-anchor="start">Wi-Fi 5</text><rect x="410" y="264" width="160" height="58" rx="10" fill="#dcfce7" stroke="#16a34a" stroke-width="1.5"/><text x="490" y="288" font-family="Arial,sans-serif" font-size="14" font-weight="bold" fill="#16a34a" text-anchor="middle">3.5 Gbps</text><rect x="590" y="264" width="160" height="58" rx="10" fill="#dcfce7" stroke="#cfd9e6" stroke-width="1"/><text x="670" y="288" font-family="Arial,sans-serif" font-size="13" font-weight="normal" fill="#50607a" text-anchor="middle">5 GHz</text><rect x="50" y="332" width="340" height="58" rx="10" fill="#fef3c7" stroke="#d97706" stroke-width="1.5"/><text x="66" y="356" font-family="Arial,sans-serif" font-size="13" font-weight="bold" fill="#d97706" text-anchor="start">802.11ax</text><text x="66" y="376" font-family="Arial,sans-serif" font-size="11" font-weight="normal" fill="#50607a" text-anchor="start">Wi-Fi 6</text><rect x="410" y="332" width="160" height="58" rx="10" fill="#fef3c7" stroke="#d97706" stroke-width="1.5"/><text x="490" y="356" font-family="Arial,sans-serif" font-size="14" font-weight="bold" fill="#d97706" text-anchor="middle">9.6 Gbps</text><rect x="590" y="332" width="160" height="58" rx="10" fill="#fef3c7" stroke="#cfd9e6" stroke-width="1"/><text x="670" y="356" font-family="Arial,sans-serif" font-size="13" font-weight="normal" fill="#50607a" text-anchor="middle">Dual+6GHz</text>
  <text x="680" y="260" font-family="Arial" font-size="60" fill="#dbeafe" text-anchor="middle">📶</text><text x="400" y="430" font-family="Arial,sans-serif" font-size="13" font-weight="normal" fill="#50607a" text-anchor="middle">2.4 GHz: mayor alcance, más interferencia</text><text x="400" y="452" font-family="Arial,sans-serif" font-size="13" font-weight="bold" fill="#0b66c3" text-anchor="middle">5 GHz: menor alcance, mayor velocidad</text>
</svg>